<svg id="Capa_1" enable-background="new 0 0 512 512" height="512" viewBox="0 0 512 512" width="512" xmlns="http://www.w3.org/2000/svg"><g><g><path clip-rule="evenodd" d="m434.416 288.418v-139.872h-85.72-324.458v240.492c0 13.179 10.772 23.952 23.923 23.952h221.462z" fill="#eff6ff" fill-rule="evenodd"/></g><g><path clip-rule="evenodd" d="m348.696 148.546h-24.41c20.628 24.783 34.351 82.542 25.985 131.448 26.157-7.764 55.552-6.246 83.657 8.165.172.086.315.172.487.258v-139.871z" fill="#d9eeff" fill-rule="evenodd"/></g><g><path clip-rule="evenodd" d="m24.238 148.546h410.178c4.67 0 8.48-3.811 8.48-8.452v-26.33l-223.668-15.93-203.442 15.93v26.33c0 4.642 3.811 8.452 8.452 8.452z" fill="#9fd4fe" fill-rule="evenodd"/></g><g><path clip-rule="evenodd" d="m15.786 113.765h427.11v-54.723c0-4.641-3.81-8.452-8.48-8.452-140.641 0-269.536 0-410.178 0-4.641 0-8.452 3.81-8.452 8.452z" fill="#eb5468" fill-rule="evenodd"/></g><g><path clip-rule="evenodd" d="m79.045 78.209c10.686 0 19.424-8.738 19.424-19.425v-8.194-23.665c.001-10.687-8.738-19.425-19.424-19.425s-19.425 8.738-19.425 19.425v23.665 8.194c.001 10.687 8.739 19.425 19.425 19.425z" fill="#ffd772" fill-rule="evenodd"/></g><g><path clip-rule="evenodd" d="m159.809 26.925v23.665 8.194c0 10.687 8.738 19.425 19.425 19.425 10.686 0 19.424-8.738 19.424-19.425v-8.194-23.665c0-10.687-8.738-19.425-19.424-19.425-10.687 0-19.425 8.738-19.425 19.425z" fill="#ffd772" fill-rule="evenodd"/></g><g><path clip-rule="evenodd" d="m259.997 26.925v23.665 8.194c0 10.687 8.738 19.425 19.424 19.425s19.425-8.738 19.425-19.425v-8.194-23.665c0-10.687-8.738-19.425-19.425-19.425s-19.424 8.738-19.424 19.425z" fill="#ffd772" fill-rule="evenodd"/></g><g><path clip-rule="evenodd" d="m360.185 26.925v23.665 8.194c0 10.687 8.738 19.425 19.424 19.425s19.453-8.738 19.453-19.425v-8.194-23.665c0-10.687-8.767-19.425-19.453-19.425s-19.424 8.738-19.424 19.425z" fill="#ffd772" fill-rule="evenodd"/></g><g><path clip-rule="evenodd" d="m348.696 148.546h85.72c4.67 0 8.48-3.811 8.48-8.452v-26.33h-97.982c2.12 11.289 3.41 22.921 3.782 34.782z" fill="#85beef" fill-rule="evenodd"/></g><g><path clip-rule="evenodd" d="m344.914 113.765h97.982v-54.723c0-4.641-3.81-8.452-8.48-8.452h-35.354v8.194c0 10.687-8.767 19.425-19.453 19.425s-19.424-8.738-19.424-19.425v-8.194h-37.846c10.543 19.225 18.278 40.512 22.575 63.175z" fill="#e5384f" fill-rule="evenodd"/></g><g><path clip-rule="evenodd" d="m98.47 26.925c0-10.687-8.739-19.425-19.425-19.425-3.925 0-7.564 1.175-10.629 3.18 5.73 3.381 9.569 9.627 9.569 16.732v23.178.487 8.194c0 6.762-3.495 12.778-8.795 16.245 2.894 1.719 6.274 2.693 9.855 2.693 10.686 0 19.424-8.738 19.424-19.425v-8.194-23.665z" fill="#fbba58" fill-rule="evenodd"/></g><g><path clip-rule="evenodd" d="m168.604 10.68c5.73 3.381 9.598 9.627 9.598 16.732v23.178.487 8.194c0 6.762-3.524 12.778-8.824 16.245 2.894 1.719 6.274 2.693 9.856 2.693 10.686 0 19.424-8.738 19.424-19.425v-8.194-23.665c0-10.687-8.738-19.425-19.424-19.425-3.897 0-7.564 1.175-10.63 3.18z" fill="#fbba58" fill-rule="evenodd"/></g><g><path clip-rule="evenodd" d="m268.821 10.68c5.701 3.381 9.569 9.627 9.569 16.732v23.178.487 8.194c0 6.762-3.524 12.778-8.824 16.245 2.894 1.719 6.274 2.693 9.855 2.693 10.686 0 19.425-8.738 19.425-19.425v-8.194-23.665c0-10.687-8.738-19.425-19.425-19.425-3.896 0-7.563 1.175-10.6 3.18z" fill="#fbba58" fill-rule="evenodd"/></g><g><path clip-rule="evenodd" d="m378.578 27.412v23.178.487 8.194c0 6.762-3.524 12.778-8.796 16.245 2.894 1.719 6.246 2.693 9.827 2.693 10.686 0 19.453-8.738 19.453-19.425v-8.194-23.665c0-10.687-8.767-19.425-19.453-19.425-3.896 0-7.564 1.175-10.6 3.18 5.701 3.381 9.569 9.627 9.569 16.732z" fill="#fbba58" fill-rule="evenodd"/></g><g><path clip-rule="evenodd" d="m214.329 344.888v-39.137c0-6.246-5.128-11.374-11.374-11.374h-33.291c-6.246 0-11.374 5.128-11.374 11.374v39.137c0 6.274 5.128 11.374 11.374 11.374h33.291c6.246 0 11.374-5.099 11.374-11.374z" fill="#95d6a4" fill-rule="evenodd"/></g><g><path clip-rule="evenodd" d="m114.198 255.384c6.246 0 11.374-5.1 11.374-11.374v-39.137c0-6.246-5.128-11.374-11.374-11.374h-33.291c-6.274 0-11.374 5.128-11.374 11.374v39.137c0 6.274 5.1 11.374 11.374 11.374z" fill="#95d6a4" fill-rule="evenodd"/></g><g><path clip-rule="evenodd" d="m158.29 204.873v39.137c0 6.274 5.1 11.374 11.374 11.374h33.291c6.246 0 11.374-5.1 11.374-11.374v-39.137c0-6.246-5.128-11.374-11.374-11.374h-33.291c-6.274 0-11.374 5.128-11.374 11.374z" fill="#95d6a4" fill-rule="evenodd"/></g><g><path clip-rule="evenodd" d="m125.572 344.888v-39.137c0-6.246-5.128-11.374-11.374-11.374h-33.291c-6.274 0-11.374 5.128-11.374 11.374v39.137c0 6.274 5.1 11.374 11.374 11.374h33.291c6.246 0 11.374-5.099 11.374-11.374z" fill="#95d6a4" fill-rule="evenodd"/></g><g><path clip-rule="evenodd" d="m303.086 244.01v-39.137c0-6.246-5.128-11.374-11.374-11.374h-33.291c-6.246 0-11.374 5.128-11.374 11.374v39.137c0 6.274 5.128 11.374 11.374 11.374h33.291c6.246 0 11.374-5.1 11.374-11.374z" fill="#95d6a4" fill-rule="evenodd"/></g><g><path clip-rule="evenodd" d="m381.758 504.5c63.058 0 114.456-51.399 114.456-114.43s-51.398-114.459-114.456-114.459c-63.029 0-114.427 51.428-114.427 114.459s51.398 114.43 114.427 114.43z" fill="#95d6a4" fill-rule="evenodd"/></g><g><path clip-rule="evenodd" d="m434.416 315.493c15.614 19.568 24.925 44.351 24.925 71.311 0 60.367-46.728 109.846-106.004 114.144 9.082 2.321 18.622 3.553 28.421 3.553 63.23 0 114.456-51.227 114.456-114.43 0-44.236-25.068-82.599-61.797-101.652l-.487-.258c-15.643-8.022-33.377-12.549-52.171-12.549-2.808 0-5.615.115-8.423.315 17.218 4.412 32.89 12.721 45.983 23.923 5.499 4.727 10.57 9.97 15.097 15.643z" fill="#78c2a4" fill-rule="evenodd"/></g><g><path d="m150.79 344.888c0 10.408 8.467 18.875 18.874 18.875h33.291c10.407 0 18.874-8.467 18.874-18.875v-39.136c0-10.408-8.467-18.875-18.874-18.875h-33.291c-10.407 0-18.874 8.467-18.874 18.875zm15-39.136c0-2.101 1.774-3.875 3.874-3.875h33.291c2.1 0 3.874 1.774 3.874 3.875v39.136c0 2.101-1.774 3.875-3.874 3.875h-33.291c-2.136 0-3.874-1.738-3.874-3.875z"/><path d="m169.664 262.884h33.291c10.407 0 18.874-8.467 18.874-18.874v-39.137c0-10.407-8.467-18.874-18.874-18.874h-33.291c-10.407 0-18.874 8.467-18.874 18.874v39.137c0 10.407 8.467 18.874 18.874 18.874zm-3.874-58.011c0-2.136 1.738-3.874 3.874-3.874h33.291c2.1 0 3.874 1.774 3.874 3.874v39.137c0 2.136-1.738 3.874-3.874 3.874h-33.291c-2.136 0-3.874-1.738-3.874-3.874z"/><path d="m114.198 185.999h-33.291c-10.407 0-18.874 8.467-18.874 18.874v39.137c0 10.407 8.467 18.874 18.874 18.874h33.291c10.407 0 18.874-8.467 18.874-18.874v-39.137c0-10.407-8.467-18.874-18.874-18.874zm3.874 58.011c0 2.136-1.738 3.874-3.874 3.874h-33.291c-2.136 0-3.874-1.738-3.874-3.874v-39.137c0-2.136 1.738-3.874 3.874-3.874h33.291c2.1 0 3.874 1.774 3.874 3.874z"/><path d="m114.198 286.877h-33.291c-10.407 0-18.874 8.467-18.874 18.875v39.136c0 10.408 8.467 18.875 18.874 18.875h33.291c10.407 0 18.874-8.467 18.874-18.875v-39.136c0-10.408-8.467-18.875-18.874-18.875zm3.874 58.011c0 2.101-1.774 3.875-3.874 3.875h-33.291c-2.136 0-3.874-1.738-3.874-3.875v-39.136c0-2.101 1.774-3.875 3.874-3.875h33.291c2.1 0 3.874 1.774 3.874 3.875z"/><path d="m291.712 262.884c10.407 0 18.874-8.467 18.874-18.874v-39.137c0-10.407-8.467-18.874-18.874-18.874h-33.291c-10.407 0-18.874 8.467-18.874 18.874v39.137c0 10.407 8.467 18.874 18.874 18.874zm-37.165-18.874v-39.137c0-2.1 1.774-3.874 3.874-3.874h33.291c2.1 0 3.874 1.774 3.874 3.874v39.137c0 2.1-1.774 3.874-3.874 3.874h-33.291c-2.136 0-3.874-1.738-3.874-3.874z"/><path d="m441.916 284.014v-129.843c5.04-2.687 8.48-7.986 8.48-14.077v-81.052c0-8.796-7.169-15.951-15.98-15.951h-27.854v-16.166c0-14.847-12.09-26.925-26.953-26.925-14.847 0-26.925 12.078-26.925 26.925v16.166h-46.339v-16.166c.001-14.847-12.077-26.925-26.924-26.925-14.846 0-26.924 12.078-26.924 26.925v16.166h-46.34v-16.166c0-14.847-12.078-26.925-26.924-26.925-14.847 0-26.925 12.078-26.925 26.925v16.166h-46.338v-16.166c0-14.847-12.078-26.925-26.925-26.925s-26.925 12.078-26.925 26.925v16.166h-27.882c-8.796 0-15.952 7.155-15.952 15.951v81.053c0 6.085 3.428 11.382 8.452 14.07v234.873c0 17.343 14.109 31.452 31.451 31.452h68.788c4.143 0 7.5-3.357 7.5-7.5s-3.357-7.5-7.5-7.5h-68.788c-9.071 0-16.451-7.38-16.451-16.452v-232.992h181.13c4.143 0 7.5-3.357 7.5-7.5s-3.357-7.5-7.5-7.5h-188.63c-.498 0-.952-.453-.952-.951v-18.83h412.11v18.83c0 .507-.458.951-.98.951h-185.908c-4.143 0-7.5 3.357-7.5 7.5s3.357 7.5 7.5 7.5h178.408v120.737c-13.974-5.59-29.212-8.671-45.158-8.671-67.23 0-121.927 54.711-121.927 121.959 0 5.222.331 10.369.971 15.42h-108.815c-4.143 0-7.5 3.357-7.5 7.5s3.357 7.5 7.5 7.5h111.685c13.548 52.561 61.354 91.509 118.086 91.509 67.247 0 121.956-54.697 121.956-121.93 0-45.385-24.923-85.056-61.798-106.056zm-74.231-257.089c0-6.575 5.35-11.925 11.925-11.925 6.591 0 11.953 5.35 11.953 11.925v31.859c0 6.575-5.362 11.925-11.953 11.925-6.575 0-11.925-5.35-11.925-11.925zm-100.188 0c0-6.575 5.349-11.925 11.924-11.925s11.925 5.35 11.925 11.925v31.859c0 6.575-5.35 11.925-11.925 11.925s-11.924-5.35-11.924-11.925zm-100.188 0c0-6.575 5.35-11.925 11.925-11.925s11.924 5.35 11.924 11.925v31.859c0 6.575-5.349 11.925-11.924 11.925s-11.925-5.35-11.925-11.925zm-100.189 0c0-6.575 5.35-11.925 11.925-11.925s11.925 5.35 11.925 11.925v31.859c0 6.575-5.35 11.925-11.925 11.925s-11.925-5.35-11.925-11.925zm-43.834 79.34v-47.223c0-.498.454-.951.952-.951h27.882v.693c0 14.847 12.078 26.925 26.925 26.925s26.925-12.078 26.925-26.925v-.693h46.339v.693c0 14.847 12.078 26.925 26.925 26.925 14.846 0 26.924-12.078 26.924-26.925v-.693h46.34v.693c0 14.847 12.078 26.925 26.924 26.925 14.847 0 26.925-12.078 26.925-26.925v-.693h46.339v.693c0 14.847 12.078 26.925 26.925 26.925 14.862 0 26.953-12.078 26.953-26.925v-.693h27.854c.522 0 .98.444.98.951v47.223zm358.472 390.735c-58.96 0-106.927-47.969-106.927-106.93 0-58.978 47.967-106.959 106.927-106.959 58.976 0 106.956 47.981 106.956 106.959 0 58.961-47.981 106.93-106.956 106.93z"/><path d="m372.963 388.815h-19.947v-19.918c0-4.143-3.357-7.5-7.5-7.5s-7.5 3.357-7.5 7.5v19.918h-20.576c-4.143 0-7.5 3.357-7.5 7.5s3.357 7.5 7.5 7.5h20.576v20.606c0 4.143 3.357 7.5 7.5 7.5s7.5-3.357 7.5-7.5v-20.606h19.947c4.143 0 7.5-3.357 7.5-7.5s-3.358-7.5-7.5-7.5z"/><path d="m434.33 346.814h-46.212c-4.143 0-7.5 3.357-7.5 7.5s3.357 7.5 7.5 7.5h34.722l-32.306 73.484c-1.667 3.792.056 8.218 3.848 9.885.982.432 2.007.636 3.015.636 2.885 0 5.635-1.674 6.87-4.483l36.93-84.003c1.02-2.319.799-4.997-.586-7.118s-3.748-3.401-6.281-3.401z"/></g></g></svg>